<svg width="27" height="27" viewBox="0 0 27 27" fill="none" xmlns="http://www.w3.org/2000/svg">
<path d="M23.614 26.9982H3.37632C2.92971 27.013 2.48489 26.9349 2.06999 26.769C1.6551 26.603 1.27915 26.3528 0.965925 26.0341C0.649642 25.7231 0.400805 25.3503 0.234924 24.9389C0.0690439 24.5275 -0.0103249 24.0864 0.00176511 23.643V3.37632C-0.0130055 2.92971 0.0650568 2.48489 0.231016 2.06999C0.396975 1.6551 0.647219 1.27915 0.965925 0.965925C1.27915 0.647219 1.6551 0.396975 2.06999 0.231016C2.48489 0.0650568 2.92971 -0.0130055 3.37632 0.00176511H23.6237C24.0703 -0.0130055 24.5151 0.0650568 24.93 0.231016C25.3449 0.396975 25.7209 0.647219 26.0341 0.965925C26.3528 1.27915 26.603 1.6551 26.769 2.06999C26.9349 2.48489 27.013 2.92971 26.9982 3.37632V23.6237C26.9932 24.5188 26.6347 25.3756 26.0008 26.0076C25.367 26.6397 24.5091 26.9957 23.614 26.9982ZM4.21514 7.60898C4.15729 7.60898 4.12837 7.60898 4.11873 7.68612V19.1789C4.11718 19.1919 4.1186 19.2052 4.1229 19.2176C4.1272 19.23 4.13425 19.2412 4.14353 19.2505C4.15282 19.2598 4.16408 19.2668 4.17649 19.2711C4.18889 19.2754 4.20211 19.2769 4.21514 19.2753H8.52494C9.45358 19.3039 10.3824 19.223 11.2921 19.0343C11.9949 18.8319 12.6108 18.4023 13.0434 17.8127C13.4761 17.223 13.7011 16.5066 13.6832 15.7754V15.7272C13.7322 15.1477 13.5899 14.5681 13.2783 14.077C12.9666 13.586 12.5026 13.2106 11.9573 13.0083C12.3844 12.7871 12.7403 12.4499 12.9842 12.0354C13.2281 11.6209 13.3501 11.1461 13.3361 10.6654C13.3319 10.449 13.3125 10.2331 13.2782 10.0194C12.8829 8.40924 11.7645 7.60898 9.92297 7.60898H4.21514ZM6.49056 9.64336H9.2577C10.3954 9.64336 10.9643 10.0579 10.9643 10.8871C10.9507 11.0928 10.9151 11.2964 10.8582 11.4945C10.6943 11.9477 9.99046 12.1695 8.76598 12.1695H6.49056V9.64336ZM6.49056 14.1363H9.32519C10.569 14.1363 11.186 14.5895 11.186 15.5151V15.6597C11.186 16.6817 10.6364 17.1927 9.5373 17.1927H6.49056V14.1363ZM18.5811 10.3761C17.9653 10.3722 17.3552 10.4936 16.7878 10.7329C16.0186 11.0553 15.3687 11.6091 14.9282 12.3174C14.4876 13.0256 14.2783 13.8534 14.3292 14.6859V15.3705C14.3189 16.1942 14.5357 17.0048 14.9559 17.7134C15.3642 18.2919 15.9083 18.7615 16.5403 19.0809C17.1724 19.4003 17.8731 19.5597 18.5811 19.5453C19.5032 19.5832 20.4167 19.3556 21.2133 18.8897C22.2256 18.0701 22.727 17.3856 22.727 16.8456C22.727 16.7492 22.727 16.6914 22.6499 16.6914H20.4709C20.3011 17.0063 20.047 17.2678 19.7371 17.4466C19.4272 17.6253 19.0737 17.7144 18.7161 17.7037C18.5365 17.6965 18.3584 17.6674 18.1858 17.617C17.7142 17.5368 17.2893 17.2842 16.9935 16.9082C16.6977 16.5323 16.5522 16.0598 16.5853 15.5826H22.7849C22.8427 15.5826 22.862 15.5826 22.862 15.5151V14.792C22.8627 14.5078 22.8402 14.224 22.7945 13.9435C22.7582 13.4303 22.6197 12.9296 22.387 12.4708C22.1543 12.012 21.8321 11.6044 21.4395 11.272C21.0469 10.9396 20.5918 10.6891 20.1009 10.5352C19.61 10.3813 19.0932 10.3273 18.5811 10.3761ZM15.949 8.25497C15.949 8.25497 15.8911 8.25497 15.8815 8.3321V9.38304C15.8815 9.45053 15.8815 9.47945 15.949 9.47945H20.8951C20.9722 9.47945 21.0108 9.47945 21.0108 9.38304V8.3321C21.0108 8.2839 21.0108 8.25497 20.8951 8.25497H15.949ZM16.6817 14.0399C16.7 13.8854 16.7355 13.7334 16.7878 13.5868C16.8866 13.1947 17.1207 12.85 17.4488 12.6137C17.7769 12.3773 18.1779 12.2644 18.5811 12.2948C18.7982 12.2953 19.0146 12.318 19.2271 12.3623C19.5946 12.4623 19.9188 12.6811 20.149 12.9845C20.3792 13.288 20.5025 13.659 20.4998 14.0399H16.6817Z" fill="#232323"/>
</svg>
