<svg width="27" height="27" viewBox="0 0 27 27" fill="none" xmlns="http://www.w3.org/2000/svg">
<path d="M25.0024 0H1.99223C1.98503 0 1.97693 0 1.96792 0C0.888537 0 0.0126034 0.867832 0 1.94362V25.0546C0.0126034 26.1313 0.888537 27 1.96792 27C1.97693 27 1.98503 27 1.99403 27H24.9997C25.0069 27 25.0159 27 25.0249 27C26.1052 27 26.9829 26.1331 27 25.0564V25.0546V1.94542C26.9829 0.867831 26.1052 0 25.024 0C25.015 0 25.0069 0 24.9979 0H25.0024ZM8.00763 23.0083H3.99797V10.125H8.00763V23.0083ZM6.0037 8.36233C4.72086 8.36233 3.68198 7.32255 3.68198 6.04061C3.68198 4.75867 4.72176 3.71889 6.0037 3.71889C7.28564 3.71889 8.32542 4.75777 8.32542 6.03971C8.32542 6.04061 8.32542 6.04151 8.32542 6.04331C8.32542 7.32435 7.28654 8.36323 6.0055 8.36323C6.0046 8.36323 6.0037 8.36323 6.0028 8.36323L6.0037 8.36233ZM23.002 23.0083H19.0041V16.7436C19.0041 15.2492 18.9735 13.3272 16.9209 13.3272C14.836 13.3272 14.5182 14.953 14.5182 16.6337V23.0092H10.5202V10.1259H14.3606V11.8823H14.4128C15.1582 10.6264 16.5068 9.79821 18.0489 9.79821C18.1038 9.79821 18.1578 9.79911 18.2119 9.80091H18.2038C22.2548 9.80091 23.0038 12.4674 23.0038 15.9379V23.0092L23.002 23.0083Z" fill="#232323"/>
</svg>
