<svg width="107" height="17" viewBox="0 0 107 17" fill="none" xmlns="http://www.w3.org/2000/svg">
<path d="M0.99 1.096H4.446V8.17C4.446 8.878 4.566 9.556 4.806 10.204C5.046 10.84 5.454 11.404 6.03 11.896C6.606 12.376 7.368 12.76 8.316 13.048C9.276 13.336 10.464 13.48 11.88 13.48C13.308 13.48 14.484 13.336 15.408 13.048C16.344 12.76 17.088 12.376 17.64 11.896C18.192 11.404 18.576 10.84 18.792 10.204C19.02 9.556 19.134 8.878 19.134 8.17V1.096H22.59V8.098C22.59 9.718 22.32 11.068 21.78 12.148C21.252 13.228 20.514 14.092 19.566 14.74C18.618 15.388 17.49 15.85 16.182 16.126C14.874 16.402 13.44 16.54 11.88 16.54C10.32 16.54 8.874 16.402 7.542 16.126C6.222 15.85 5.076 15.388 4.104 14.74C3.132 14.092 2.37 13.228 1.818 12.148C1.266 11.068 0.99 9.724 0.99 8.116V1.096ZM22.1147 1.096H25.5707L40.3667 11.896V1.096H43.8227V16H40.3667L25.5707 5.2V16H22.1147V1.096ZM64.785 14.596C64.113 14.944 63.417 15.244 62.697 15.496C61.977 15.736 61.245 15.934 60.501 16.09C59.769 16.246 59.037 16.36 58.305 16.432C57.573 16.504 56.865 16.54 56.181 16.54C54.189 16.54 52.389 16.336 50.781 15.928C49.173 15.508 47.805 14.938 46.677 14.218C45.549 13.498 44.679 12.652 44.067 11.68C43.467 10.708 43.167 9.664 43.167 8.548C43.167 7.432 43.467 6.388 44.067 5.416C44.679 4.444 45.549 3.598 46.677 2.878C47.805 2.158 49.173 1.594 50.781 1.186C52.389 0.765999 54.189 0.555999 56.181 0.555999C57.969 0.555999 59.577 0.735999 61.005 1.096C62.433 1.456 63.693 1.924 64.785 2.5V6.19C64.293 5.77 63.717 5.392 63.057 5.056C62.397 4.72 61.689 4.432 60.933 4.192C60.189 3.952 59.409 3.766 58.593 3.634C57.789 3.502 56.991 3.436 56.199 3.436C54.759 3.436 53.463 3.568 52.311 3.832C51.159 4.096 50.175 4.462 49.359 4.93C48.555 5.386 47.937 5.926 47.505 6.55C47.073 7.174 46.857 7.84 46.857 8.548C46.857 9.256 47.073 9.922 47.505 10.546C47.937 11.17 48.555 11.716 49.359 12.184C50.175 12.64 51.159 13 52.311 13.264C53.463 13.528 54.759 13.66 56.199 13.66C56.991 13.66 57.789 13.594 58.593 13.462C59.397 13.33 60.171 13.144 60.915 12.904C61.659 12.664 62.355 12.376 63.003 12.04C63.651 11.692 64.221 11.308 64.713 10.888L64.785 14.596ZM64.3127 1.096H67.7687V8.17C67.7687 8.878 67.8887 9.556 68.1287 10.204C68.3687 10.84 68.7767 11.404 69.3527 11.896C69.9287 12.376 70.6907 12.76 71.6387 13.048C72.5987 13.336 73.7867 13.48 75.2027 13.48C76.6307 13.48 77.8067 13.336 78.7307 13.048C79.6667 12.76 80.4107 12.376 80.9627 11.896C81.5147 11.404 81.8987 10.84 82.1147 10.204C82.3427 9.556 82.4567 8.878 82.4567 8.17V1.096H85.9127V8.098C85.9127 9.718 85.6427 11.068 85.1027 12.148C84.5747 13.228 83.8367 14.092 82.8887 14.74C81.9407 15.388 80.8127 15.85 79.5047 16.126C78.1967 16.402 76.7627 16.54 75.2027 16.54C73.6427 16.54 72.1967 16.402 70.8647 16.126C69.5447 15.85 68.3987 15.388 67.4267 14.74C66.4547 14.092 65.6927 13.228 65.1407 12.148C64.5887 11.068 64.3127 9.724 64.3127 8.116V1.096ZM93.9749 4.066H85.3709V1.096H106.035V4.066H97.4309V16H93.9749V4.066Z" fill="#232323"/>
</svg>
